<?xml version="1.0" encoding="utf-8"?>
<!-- Generator: Adobe Illustrator 16.0.0, SVG Export Plug-In . SVG Version: 6.00 Build 0)  -->
<!DOCTYPE svg PUBLIC "-//W3C//DTD SVG 1.1//EN" "http://www.w3.org/Graphics/SVG/1.1/DTD/svg11.dtd">
<svg version="1.1" id="Calque_1" xmlns="http://www.w3.org/2000/svg" xmlns:xlink="http://www.w3.org/1999/xlink" x="0px" y="0px"
	 width="2048px" height="2048px" viewBox="0 0 2048 2048" enable-background="new 0 0 2048 2048" xml:space="preserve">
<g id="Layer_x0020_1">
	<path fill="#FFFFFF" d="M784.594,1775.93c-5.738,0-12.109-0.599-19.155-1.886l2.875-31.625l28.391-0.006
		c4.714-1.315,8.456-3.416,11.354-6.031c4.962-4.479,7.826-10.693,9.001-17.117c0.394-2.152,0.583-4.53,0.583-7.036
		c0-17.17-0.154-33.205-0.357-54.727c-0.229-24.168-0.516-54.196-0.753-88.622c-258.799,46.983-319.217-134.774-321.697-142.595
		c-41.181-104.091-97.812-130.628-97.977-130.707l-2.124-1.188c-130.439-89.143,15.228-87.294,15.642-87.293h1
		c102.02,7.182,156.354,101.244,159.314,106.5l0.011-0.006c31.012,53.134,69.166,79.334,107.076,90.157
		c54.992,15.699,110.447-0.182,143.204-13.723c4.544-26.858,12.028-50.081,21.37-69.754c6.294-13.254,13.452-24.942,21.15-35.09
		c-98.828-14.023-197.869-42.657-275.239-107.786c-85.846-72.267-144.027-188.349-144.027-377.124h0.062
		c0.009-52.789,9.146-100.878,25.819-144.331c16.525-43.069,40.477-81.656,70.3-115.817c-5.706-16.214-13.63-44.472-16.131-81.881
		c-3.06-45.752,1.932-105.447,29.002-173.888l0.625-1.25c0.016-0.033,11.768-10.042,28.38-10.883
		c10.959-0.554,27.498,0.021,49.819,4.534c43.472,8.79,110.06,32.896,201.989,94.269c36.319-9.764,73.806-17.184,111.829-22.298
		c41.141-5.532,83.032-8.371,124.868-8.557h0.126c41.789,0.187,83.634,3.026,124.749,8.555
		c38.041,5.117,75.562,12.543,111.949,22.306c184.793-123.404,269.951-96.187,270.202-96.113l7.444,2.208l2.868,7.229
		c27.175,68.531,32.213,128.169,29.182,173.825c-2.484,37.401-10.377,65.647-16.06,81.874
		c29.806,34.076,53.683,72.614,70.172,115.667c16.709,43.628,25.821,91.799,25.821,144.552
		c0,189.299-58.269,305.326-144.281,377.334c-77.426,64.822-176.587,93.081-275.626,106.865
		c11.581,15.146,21.991,33.783,30.119,55.973c10.94,29.871,17.798,66.258,17.798,109.271c0,76.747-0.566,156.597-0.941,209.467
		c-0.137,19.4-0.24,33.893-0.24,53.047h-0.062c0.001,2.393,0.246,4.959,0.762,7.63c1.232,6.395,4.063,12.51,8.9,16.846
		c2.65,2.377,6.014,4.314,10.188,5.604l30.006-0.006l3,31.625c-7.109,1.37-13.831,2.007-20.163,2.011
		c-6.132,0.004-11.78-0.612-16.968-1.753l-538.688,0.103C795.999,1775.353,790.521,1775.929,784.594,1775.93L784.594,1775.93z"/>
</g>
<rect fill="none" width="2048" height="2048"/>
</svg>
